<svg xmlns="http://www.w3.org/2000/svg" width="44.298" height="59.256" viewBox="0 0 44.298 59.256">
  <g id="Union_1" data-name="Union 1" transform="translate(0.649 -2.744)" fill="rgba(18, 36, 36, 0.5)" stroke-linecap="round">
    <path d="M13,62a3,3,0,0,1-3-3V40H2.355A3,3,0,0,1-.2,35.433L18.941,4.177a3,3,0,0,1,5.117,0L43.2,35.433A3,3,0,0,1,40.645,40H33V59a3,3,0,0,1-3,3Z" stroke="none"/>
    <path d="M 28.00030136108398 57.00010299682617 L 28.00030136108398 34.99960327148438 L 37.07384490966797 34.99960327148438 L 21.49969100952148 9.57298755645752 L 5.92626428604126 34.99960327148438 L 14.99990081787109 34.99960327148438 L 14.99990081787109 57.00010299682617 L 28.00030136108398 57.00010299682617 M 29.99970054626465 62.00010299682617 L 12.99960136413574 62.00010299682617 C 11.34270095825195 62.00010299682617 9.999900817871094 60.65730285644531 9.999900817871094 59.00040054321289 L 9.999900817871094 39.99960327148438 L 2.355300903320312 39.99960327148438 C 0.01170095521956682 39.99960327148438 -1.427399039268494 37.43190383911133 -0.20249904692173 35.43300247192383 L 18.9414005279541 4.176901817321777 C 20.11230278015137 2.266201972961426 22.88789939880371 2.266201972961426 24.05790138244629 4.176901817321777 L 43.20270156860352 35.43300247192383 C 44.42670059204102 37.43190383911133 42.98850250244141 39.99960327148438 40.64490127563477 39.99960327148438 L 33.00030136108398 39.99960327148438 L 33.00030136108398 59.00040054321289 C 33.00030136108398 60.65730285644531 31.65660095214844 62.00010299682617 29.99970054626465 62.00010299682617 Z" stroke="none" fill="rgba(52, 224, 219, 0.8)"/>
  </g>
</svg>
